<svg width="16" height="16" viewBox="0 0 16 16" fill="none" xmlns="http://www.w3.org/2000/svg">
<path d="M7.51234 8.4998V8.4873H7.49984H4.1665C4.02799 8.4873 3.91247 8.44057 3.81909 8.34717C3.72572 8.25375 3.679 8.13818 3.679 7.9996C3.679 7.86102 3.72572 7.74552 3.81909 7.65226C3.91246 7.559 4.02798 7.51234 4.1665 7.51234H7.49984H7.51234V7.49984V4.1665C7.51234 4.02799 7.55907 3.91247 7.65247 3.81909C7.74589 3.72572 7.86146 3.679 8.00004 3.679C8.13862 3.679 8.25412 3.72572 8.34738 3.81909C8.44064 3.91246 8.4873 4.02798 8.4873 4.1665V7.49984V7.51234H8.4998H11.8331C11.9717 7.51234 12.0872 7.55907 12.1805 7.65247C12.2739 7.74589 12.3206 7.86146 12.3206 8.00004C12.3206 8.13862 12.2739 8.25412 12.1806 8.34738C12.0872 8.44064 11.9717 8.4873 11.8331 8.4873H8.4998H8.4873V8.4998V11.8331C8.4873 11.9717 8.44057 12.0872 8.34717 12.1805C8.25375 12.2739 8.13818 12.3206 7.9996 12.3206C7.86102 12.3206 7.74552 12.2739 7.65226 12.1806C7.559 12.0872 7.51234 11.9717 7.51234 11.8331V8.4998Z" fill="#B0B0B0" stroke="#B0B0B0" stroke-width="0.025"/>
</svg>
