<svg width="40" height="40" viewBox="0 0 40 40" fill="none" xmlns="http://www.w3.org/2000/svg">
<path d="M19.167 18.8335L16.4457 20.936C16.2899 21.0535 16.1366 21.0578 15.9857 20.9489C15.8352 20.84 15.7877 20.6989 15.8432 20.5256L16.8787 17.1218L14.122 15.0131C13.9831 14.8956 13.9442 14.7518 14.0053 14.5818C14.0662 14.4121 14.1831 14.3272 14.3562 14.3272H17.7632L18.7982 10.9747C18.8538 10.8014 18.9767 10.7147 19.167 10.7147C19.3573 10.7147 19.4802 10.8014 19.5357 10.9747L20.5707 14.3272H23.9524C24.1255 14.3272 24.2467 14.4121 24.3162 14.5818C24.3856 14.7518 24.3509 14.8956 24.212 15.0131L21.4299 17.1218L22.4649 20.5256C22.5205 20.6989 22.473 20.84 22.3224 20.9489C22.1719 21.0578 22.0185 21.0535 21.8624 20.936L19.167 18.8335ZM19.167 33.3014L11.9682 35.5802C11.4769 35.7532 11.026 35.6864 10.6157 35.3797C10.2055 35.0731 10.0003 34.6688 10.0003 34.1668V24.2885C8.94477 23.186 8.12533 21.9114 7.54199 20.4647C6.95866 19.0184 6.66699 17.4746 6.66699 15.8335C6.66699 12.3463 7.87852 9.39113 10.3016 6.96808C12.7246 4.54502 15.6798 3.3335 19.167 3.3335C22.6542 3.3335 25.6094 4.54502 28.0324 6.96808C30.4555 9.39113 31.667 12.3463 31.667 15.8335C31.667 17.4746 31.3753 19.0184 30.792 20.4647C30.2087 21.9114 29.3892 23.186 28.3337 24.2885V34.1668C28.3337 34.6688 28.1285 35.0731 27.7182 35.3797C27.308 35.6864 26.8571 35.7532 26.3657 35.5802L19.167 33.3014ZM19.167 25.8335C21.9448 25.8335 24.3059 24.8613 26.2503 22.9168C28.1948 20.9724 29.167 18.6113 29.167 15.8335C29.167 13.0557 28.1948 10.6946 26.2503 8.75016C24.3059 6.80572 21.9448 5.8335 19.167 5.8335C16.3892 5.8335 14.0281 6.80572 12.0837 8.75016C10.1392 10.6946 9.16699 13.0557 9.16699 15.8335C9.16699 18.6113 10.1392 20.9724 12.0837 22.9168C14.0281 24.8613 16.3892 25.8335 19.167 25.8335ZM12.5003 32.5577L19.167 30.7693L25.8337 32.5577V26.3656C24.8828 26.9853 23.8423 27.4682 22.712 27.8143C21.5814 28.1604 20.3998 28.3335 19.167 28.3335C17.9342 28.3335 16.7525 28.1604 15.622 27.8143C14.4917 27.4682 13.4512 26.9853 12.5003 26.3656V32.5577Z" fill="#FE4747"/>
</svg>
