<svg width="18" height="19" viewBox="0 0 18 19" fill="none" xmlns="http://www.w3.org/2000/svg">
<path d="M3.75 16.2502C3.3375 16.2502 2.98438 16.1033 2.69063 15.8096C2.39687 15.5158 2.25 15.1627 2.25 14.7502V4.2502C2.25 3.8377 2.39687 3.48457 2.69063 3.19082C2.98438 2.89707 3.3375 2.7502 3.75 2.7502H10.4438L8.94375 4.2502H3.75V14.7502H14.25V9.53769L15.75 8.03769V14.7502C15.75 15.1627 15.6031 15.5158 15.3094 15.8096C15.0156 16.1033 14.6625 16.2502 14.25 16.2502H3.75ZM6.75 11.7502V8.5627L13.6313 1.68145C13.7812 1.53145 13.95 1.41895 14.1375 1.34395C14.325 1.26895 14.5125 1.23145 14.7 1.23145C14.9 1.23145 15.0906 1.26895 15.2719 1.34395C15.4531 1.41895 15.6188 1.53145 15.7688 1.68145L16.8188 2.7502C16.9563 2.9002 17.0625 3.06582 17.1375 3.24707C17.2125 3.42832 17.25 3.6127 17.25 3.8002C17.25 3.9877 17.2156 4.17207 17.1469 4.35332C17.0781 4.53457 16.9688 4.7002 16.8188 4.8502L9.9375 11.7502H6.75ZM8.25 10.2502H9.3L13.65 5.9002L13.125 5.3752L12.5813 4.8502L8.25 9.18144V10.2502Z" fill="#FE4747"/>
</svg>
