<svg width="16" height="17" viewBox="0 0 16 17" fill="none" xmlns="http://www.w3.org/2000/svg">
<path d="M8.00028 11.6665C8.14201 11.6665 8.26074 11.6186 8.35646 11.5227C8.45219 11.4269 8.50005 11.3082 8.50005 11.1665V8.33314C8.50005 8.19148 8.45212 8.07274 8.35625 7.9769C8.26037 7.88107 8.14157 7.83315 7.99985 7.83315C7.85811 7.83315 7.73939 7.88107 7.64366 7.9769C7.54794 8.07274 7.50008 8.19148 7.50008 8.33314V11.1665C7.50008 11.3082 7.54801 11.4269 7.64388 11.5227C7.73976 11.6186 7.85856 11.6665 8.00028 11.6665ZM8.00006 6.69214C8.15263 6.69214 8.28052 6.64054 8.38372 6.53734C8.48692 6.43414 8.53852 6.30625 8.53852 6.15369C8.53852 6.00113 8.48692 5.87325 8.38372 5.77004C8.28052 5.66684 8.15263 5.61524 8.00006 5.61524C7.8475 5.61524 7.71961 5.66684 7.61641 5.77004C7.51321 5.87325 7.46161 6.00113 7.46161 6.15369C7.46161 6.30625 7.51321 6.43414 7.61641 6.53734C7.71961 6.64054 7.8475 6.69214 8.00006 6.69214ZM8.00118 14.8331C7.12523 14.8331 6.30187 14.6669 5.53111 14.3345C4.76035 14.002 4.08989 13.5509 3.51975 12.981C2.94959 12.4111 2.49822 11.7409 2.16563 10.9705C1.83304 10.2001 1.66675 9.37689 1.66675 8.50094C1.66675 7.62498 1.83297 6.80163 2.16541 6.03087C2.49786 5.2601 2.94903 4.58965 3.51891 4.0195C4.08881 3.44935 4.75898 2.99798 5.5294 2.66539C6.29981 2.3328 7.12299 2.1665 7.99895 2.1665C8.8749 2.1665 9.69826 2.33273 10.469 2.66517C11.2398 2.99762 11.9102 3.44878 12.4804 4.01867C13.0505 4.58857 13.5019 5.25873 13.8345 6.02915C14.1671 6.79957 14.3334 7.62275 14.3334 8.4987C14.3334 9.37466 14.1672 10.198 13.8347 10.9688C13.5023 11.7395 13.0511 12.41 12.4812 12.9801C11.9113 13.5503 11.2412 14.0017 10.4707 14.3343C9.70032 14.6668 8.87714 14.8331 8.00118 14.8331ZM8.00006 13.8332C9.48895 13.8332 10.7501 13.3165 11.7834 12.2832C12.8167 11.2498 13.3334 9.98871 13.3334 8.49982C13.3334 7.01093 12.8167 5.74982 11.7834 4.71649C10.7501 3.68315 9.48895 3.16649 8.00006 3.16649C6.51118 3.16649 5.25006 3.68315 4.21673 4.71649C3.1834 5.74982 2.66673 7.01093 2.66673 8.49982C2.66673 9.98871 3.1834 11.2498 4.21673 12.2832C5.25006 13.3165 6.51118 13.8332 8.00006 13.8332Z" fill="#B0B0B0"/>
</svg>
