<svg width="111" height="112" viewBox="0 0 111 112" fill="none" xmlns="http://www.w3.org/2000/svg">
<path d="M48.0302 67.9475C47.5342 67.1898 46.5179 66.978 45.7604 67.4736C33.4204 75.5498 22.0194 85.058 11.8742 95.7337L9.77011 97.948L16.4068 86.6042C21.7629 77.4491 28.2871 69.0021 35.7982 61.4977C36.439 60.8576 36.4394 59.8197 35.7993 59.1791C35.1592 58.5386 34.1211 58.538 33.4808 59.178C25.7709 66.8807 19.0745 75.5509 13.5765 84.9484L6.69998 96.7023L7.98846 92.3979C9.67458 86.7648 11.6539 81.1368 13.871 75.6698C14.2114 74.8308 13.8069 73.8746 12.9677 73.5342C12.1289 73.1937 11.1725 73.5983 10.8321 74.4373C8.57629 79.9998 6.56248 85.7262 4.84706 91.4575L0.0857763 107.363C-0.182893 108.26 0.194862 109.215 1.00502 109.685C1.32244 109.869 1.67178 109.959 2.01783 109.959C2.55495 109.959 3.08486 109.743 3.47748 109.33L14.2514 97.9926C24.2223 87.5 35.4277 78.155 47.5565 70.2171C48.314 69.7213 48.526 68.7052 48.0302 67.9475Z" fill="#FFEBEB"/>
<path d="M19.797 55.416C19.3665 56.2126 19.6636 57.2073 20.46 57.638C20.7079 57.7717 20.9746 57.8354 21.238 57.8354C21.8211 57.8354 22.3855 57.5236 22.6819 56.9747C29.041 45.2048 36.6731 34.1105 45.3684 23.9712L54.7471 33.1132L53.0169 43.2006C47.9843 46.5443 43.1443 50.2789 38.6259 54.3169C37.9508 54.9202 37.8927 55.9566 38.496 56.6319C38.8198 56.9944 39.2684 57.1789 39.7192 57.1789C40.1078 57.1789 40.4983 57.0414 40.8111 56.7618C44.4332 53.5246 48.2687 50.4906 52.2447 47.7016L52.2377 47.7427C52.0299 48.9555 52.5191 50.1583 53.5149 50.8816C54.5106 51.6052 55.8056 51.6986 56.8947 51.1258L70.0331 44.2185L80.1452 49.5348L74.1779 52.131C71.1692 53.44 68.133 54.8568 65.1533 56.3423C64.3429 56.7463 64.0133 57.7309 64.4175 58.5412C64.7043 59.1166 65.2838 59.4496 65.8861 59.4496C66.1318 59.4496 66.3815 59.3942 66.6162 59.2771C69.5454 57.8168 72.5298 56.4242 75.4863 55.1379L84.0188 51.4258C84.2337 51.4706 84.4507 51.4979 84.668 51.4979C85.3306 51.4979 85.9889 51.2902 86.5513 50.8814C87.5471 50.1581 88.0361 48.9553 87.828 47.7427L85.3188 33.113L95.9478 22.752C96.829 21.8931 97.1403 20.6324 96.7601 19.462C96.38 18.2916 95.3872 17.4545 94.1692 17.2777L79.4802 15.1432L72.9111 1.83257C72.3661 0.729037 71.2632 0.0437012 70.0327 0.0437012C68.8023 0.0437012 67.6995 0.729037 67.1547 1.83279L60.5855 15.1434L45.8966 17.2779C44.6789 17.455 43.6862 18.2918 43.3059 19.462C43.0995 20.0968 43.0982 20.7577 43.2792 21.3669C34.2649 31.8096 26.3648 43.2599 19.797 55.416ZM61.0936 18.3832C62.1389 18.2312 63.0424 17.575 63.5101 16.6275L70.0331 3.4107L76.5559 16.6275C77.0235 17.575 77.9268 18.2312 78.9726 18.3832L93.5579 20.5026L83.004 30.7905C82.2474 31.5281 81.9024 32.5898 82.081 33.6311L84.5723 48.1576L71.5264 41.299C70.5912 40.8073 69.4746 40.8078 68.5398 41.299L55.4939 48.1576L57.9856 33.6311C58.164 32.5898 57.819 31.5278 57.0624 30.7903L46.5082 20.5023L61.0936 18.3832Z" fill="#FFEBEB"/>
<path d="M110.877 74.9351C110.584 74.0331 109.819 73.3878 108.88 73.2514L101.477 72.1756L98.1656 65.4668C97.7459 64.6162 96.8959 64.088 95.9476 64.088C94.9993 64.088 94.1491 64.6164 93.7296 65.4668L90.4186 72.1756L83.0149 73.2514C82.0762 73.388 81.3111 74.0331 81.0182 74.9351C80.9952 75.0055 80.9769 75.0766 80.9605 75.1476C76.8996 76.426 72.8652 77.9335 68.9491 79.6431C68.1192 80.0053 67.7402 80.9718 68.1024 81.8016C68.3715 82.4181 68.9738 82.7856 69.606 82.7856C69.825 82.7856 70.0478 82.7414 70.2611 82.6483C74.1985 80.9294 78.2585 79.4203 82.3425 78.1511L87.0015 82.6924L85.781 89.8079C71.3627 91.0275 57.426 94.7937 44.3539 101.006L37.1665 104.422C45.1813 96.9186 54.1974 90.5958 64.0094 85.6014C64.8163 85.1907 65.1374 84.2034 64.7266 83.3966C64.3159 82.5897 63.3286 82.2685 62.5218 82.6791C51.3887 88.3458 41.2534 95.6758 32.3967 104.465L28.5949 108.238C27.9681 108.86 27.8818 109.836 28.3898 110.559C28.7383 111.055 29.294 111.328 29.8665 111.328C30.128 111.328 30.3932 111.271 30.6437 111.152L45.7611 103.968C58.5569 97.8868 72.2039 94.2142 86.3229 93.0518L87.5771 92.8859C87.7721 92.9349 87.9717 92.9604 88.1721 92.9604C88.5654 92.9604 88.9604 92.8656 89.3255 92.6736L95.9476 89.1923L102.569 92.6736C103.409 93.115 104.407 93.0429 105.174 92.4856C105.942 91.9282 106.319 91.0013 106.159 90.0663L104.894 82.6926L110.251 77.4705C110.93 76.8086 111.17 75.8371 110.877 74.9351ZM102.302 80.6397C101.719 81.2079 101.453 82.0263 101.591 82.8295L102.651 89.0117L97.0992 86.0929C96.7387 85.9033 96.3433 85.8085 95.9478 85.8085C95.5523 85.8085 95.1571 85.9033 94.7966 86.0927L89.2446 89.0115L90.3053 82.8288C90.4426 82.0263 90.1766 81.2079 89.5937 80.6399L85.102 76.2614L91.3089 75.3597C92.115 75.2429 92.8112 74.7368 93.1717 74.0065L95.9478 68.3817L98.7237 74.0065C99.0842 74.7371 99.7807 75.2429 100.586 75.3597L106.794 76.2616L102.302 80.6397Z" fill="#FFEBEB"/>
<path d="M5.58876 66.5482L15.3266 71.0061H15.3269C15.7486 71.1991 16.1908 71.2902 16.6267 71.2902C17.8159 71.2902 18.9558 70.6102 19.4824 69.4601L21.4545 65.1517C21.8031 64.3903 21.8342 63.5386 21.5423 62.7536C21.2503 61.9688 20.6701 61.3445 19.9087 60.9958L10.1706 56.5379C8.59855 55.8183 6.73448 56.5119 6.01482 58.0837L4.04276 62.392C3.69408 63.1534 3.66304 64.0051 3.9551 64.7902C4.24738 65.5754 4.82756 66.1997 5.58876 66.5482ZM8.93718 59.5796L18.4134 63.9175L16.5609 67.9646L7.08469 63.6265L8.93718 59.5796Z" fill="#FFEBEB"/>
<path d="M55.7959 58.9474C54.9623 58.86 54.1458 59.1022 53.4953 59.6293C52.8447 60.1563 52.4381 60.9053 52.3506 61.7382L51.2322 72.3894C51.1448 73.2223 51.387 74.0393 51.9141 74.6901C52.4411 75.3408 53.1901 75.7472 54.0228 75.8347L57.8716 76.2389C57.9833 76.2507 58.0943 76.2564 58.2047 76.2564C58.92 76.2564 59.6086 76.0137 60.1722 75.5571C60.823 75.03 61.2294 74.281 61.3168 73.4481L62.4352 62.7969C62.6158 61.0776 61.3638 59.5318 59.6445 59.3514L55.7959 58.9474ZM58.0709 72.9628L54.5083 72.5888L55.5967 62.2237L59.1594 62.5977L58.0709 72.9628Z" fill="#FFEBEB"/>
<path d="M106.906 103.455L97.5409 96.1737C97.5409 96.1737 97.5409 96.1737 97.5407 96.1737C96.4269 95.3078 94.8164 95.5098 93.9505 96.6232L90.8671 100.589C90.0014 101.703 90.2029 103.314 91.3167 104.179L100.682 111.461C101.136 111.814 101.682 112 102.248 112C102.355 112 102.462 111.993 102.571 111.98C103.249 111.895 103.853 111.551 104.273 111.012L107.356 107.046C107.776 106.507 107.96 105.836 107.875 105.157C107.79 104.479 107.446 103.875 106.906 103.455ZM102.126 108.43L93.8983 102.033L96.097 99.2047L104.325 105.602L102.126 108.43Z" fill="#FFEBEB"/>
<path d="M11.3469 34.3916L15.4504 36.7609C15.9429 37.0453 16.4814 37.1804 17.0128 37.1804C18.0971 37.1804 19.1532 36.6181 19.7332 35.6134L27.2238 22.6395C28.0877 21.1422 27.5729 19.2211 26.0759 18.3569L21.9724 15.9877C20.4758 15.1235 18.554 15.6377 17.6894 17.1351L16.0953 19.8964C15.6426 20.6805 15.9112 21.6833 16.6954 22.136C17.48 22.5887 18.4825 22.3199 18.935 21.5359L20.4572 18.8993L24.3119 21.1247L16.9656 33.8492L13.1109 31.6238L15.4415 27.587C15.8942 26.8029 15.6255 25.8001 14.8414 25.3474C14.0568 24.8942 13.0543 25.1633 12.6017 25.9474L10.199 30.1091C9.33508 31.6061 9.8499 33.5272 11.3469 34.3916Z" fill="#FFEBEB"/>
</svg>
